<svg width="128" height="128" viewBox="0 0 128 128" fill="none" xmlns="http://www.w3.org/2000/svg">
<path d="M119.37 95.6081L121.55 95.0535L120.2 93.2541C118.124 90.4882 116.065 87.7375 114.015 84.9998C108.696 77.8954 103.442 70.8788 98.1447 63.9147L98.144 63.9138C97.5536 63.1388 97.4187 62.7433 97.4057 62.5014C97.3956 62.3144 97.4453 61.949 98.0403 61.2097C101.002 57.5341 103.852 53.7592 106.684 50.0078C107.661 48.7137 108.636 47.4223 109.612 46.1387L109.613 46.1381C111.63 43.4832 113.64 40.8136 115.667 38.1213C116.49 37.029 117.315 35.9329 118.145 34.8326L119.453 33.0967L117.366 32.4892C115.255 31.875 113.376 31.8317 111.666 32.5145C109.98 33.1877 108.676 34.4814 107.536 36.0988C103.746 41.4298 99.8034 46.606 95.7657 51.9065C94.6079 53.4263 93.4424 54.9564 92.2705 56.5032C91.0096 54.8275 89.7535 53.1747 88.507 51.5345C84.5644 46.3466 80.7184 41.2857 77.1223 36.0305C75.8207 34.1275 74.3293 32.9281 72.5093 32.3811C70.7438 31.8505 68.8567 31.9939 66.8849 32.3782L64.5058 32.8419L65.9822 34.7642L87.2787 62.4939L64.337 93.2845L63.0189 95.0536L65.1487 95.6289C67.3378 96.2201 69.2405 96.1992 70.9468 95.4562C72.6192 94.7281 73.8932 93.3949 75.0153 91.796L75.0156 91.7955C79.0121 86.0956 83.1768 80.5597 87.4184 74.9214C89.0177 72.7955 90.628 70.655 92.2443 68.4857C92.6168 68.9772 92.961 69.436 93.2996 69.9004L93.3011 69.9025C94.7677 71.9073 96.2432 73.8945 97.7149 75.8765C101.601 81.1099 105.46 86.3071 109.057 91.6969C110.267 93.5139 111.66 94.8596 113.45 95.5426C115.237 96.225 117.197 96.1609 119.37 95.6081ZM7.55529 61.6603L7.52632 61.8056V61.9537C7.52632 63.727 7.51757 65.5003 7.50007 67.2735L7.49852 67.4308L7.52961 67.5849C7.60596 67.9635 7.68285 68.3121 7.75606 68.644C7.90742 69.3302 8.04306 69.945 8.12572 70.6067L8.12724 70.6181C9.02644 77.3892 11.084 83.8565 16.0536 89.0883C24.4678 97.9867 40.2644 99.987 51.3509 93.6492L51.3517 93.6487C58.8664 89.3466 62.4055 82.4671 63.9418 74.504L64.1979 73.1764L62.9039 72.7843C61.3902 72.3256 59.8141 72.0769 58.4188 72.7137C56.965 73.3772 56.1612 74.7799 55.6469 76.4673L55.6455 76.4718C53.8929 82.2861 50.4764 86.7335 44.7857 88.6437C36.2568 91.5062 28.8364 90.0893 23.6444 85.8376C18.7019 81.7901 15.5705 75.0012 15.5611 66.3141H63.048H64.4898L64.5468 64.8734C64.9856 53.7885 62.79 43.5663 53.5608 36.3041L53.56 36.3035C37.808 23.9256 15.0369 32.3187 9.51262 52.0454C8.89264 54.2405 8.48326 56.5473 8.09006 58.7629C7.91436 59.753 7.74188 60.7248 7.55529 61.6603ZM37.3544 37.9564L37.3555 37.9564C47.9166 38.0336 56.0068 46.4948 56.8575 59.1464H15.7738C16.3192 52.9015 18.628 47.7507 22.1314 44.106C25.9137 40.1713 31.167 37.9069 37.3544 37.9564Z" fill="black" stroke="white" stroke-width="3"/>
<path d="M119.123 94.639L119.85 94.4541L119.4 93.8543C117.323 91.0865 115.262 88.3346 113.212 85.5962C107.894 78.4929 102.644 71.481 97.3488 64.5201L97.3486 64.5198C96.7306 63.7087 96.4371 63.1104 96.4071 62.5552C96.3782 62.0184 96.5921 61.4141 97.2612 60.5828C100.212 56.9205 103.048 53.1637 105.878 49.4158C106.856 48.1191 107.835 46.8235 108.816 45.5332L108.817 45.533C110.833 42.8803 112.84 40.2139 114.866 37.5225C115.689 36.4295 116.515 35.3325 117.346 34.2305L117.782 33.6519L117.087 33.4494C115.117 32.8761 113.478 32.8676 112.037 33.4432C110.603 34.0156 109.437 35.1371 108.353 36.6765C104.552 42.0225 100.593 47.2191 96.5516 52.5251C95.1327 54.3877 93.7036 56.2638 92.2674 58.1646C90.7489 56.1375 89.2321 54.1415 87.7268 52.1608C83.7776 46.9642 79.9079 41.8721 76.2971 36.5953C75.0911 34.832 73.7721 33.8048 72.2215 33.3388C70.6891 32.8782 68.994 32.986 67.0762 33.3598L66.2832 33.5143L66.7753 34.1551L88.5326 62.4847L65.1389 93.882L64.6995 94.4717L65.4095 94.6634C67.4494 95.2144 69.1073 95.1665 70.5476 94.5394C71.9766 93.9172 73.1208 92.7548 74.1967 91.2216L74.1968 91.2214C78.203 85.5077 82.3847 79.9491 86.6319 74.3033C88.4903 71.8331 90.3612 69.3462 92.2354 66.8223C92.2952 66.9007 92.3541 66.9781 92.4123 67.0546C93.0412 67.8802 93.5819 68.5901 94.1076 69.3114L94.1081 69.312C95.5654 71.304 97.0352 73.2835 98.5037 75.2613C102.395 80.5017 106.277 85.7295 109.889 91.1417C111.032 92.8588 112.279 94.0253 113.806 94.6084C115.333 95.1912 117.065 95.1625 119.123 94.639ZM8.53598 61.8559L8.52632 61.9044V61.9537C8.52632 63.7303 8.51756 65.5069 8.50002 67.2834L8.49951 67.3358L8.50987 67.3872C8.57803 67.7252 8.65034 68.0534 8.72148 68.3763C8.87835 69.0884 9.02954 69.7746 9.11803 70.4827L9.11853 70.4865C10.0032 77.1479 12.0109 83.3805 16.779 88.4C24.8539 96.9409 40.1397 98.9064 50.8546 92.781L50.8549 92.7809C58.0392 88.6678 61.4593 82.093 62.9599 74.3145L63.0453 73.872L62.6139 73.7413C61.1442 73.2959 59.8774 73.1473 58.834 73.6235C57.771 74.1086 57.0878 75.1699 56.6034 76.7589L56.603 76.7604C54.7845 82.793 51.1831 87.5511 45.104 89.5917C36.3005 92.5464 28.5085 91.1133 23.0109 86.6113C17.5982 82.1788 14.335 74.71 14.5734 65.3141H63.048H63.5286L63.5476 64.8338C63.9805 53.8974 61.8097 44.0674 52.9424 37.09L52.9422 37.0898C37.8061 25.1959 15.8262 33.2054 10.4752 52.3163C9.86889 54.4629 9.47481 56.6847 9.08616 58.876C8.90825 59.8791 8.73147 60.8758 8.53598 61.8559ZM37.3624 36.9564L37.3628 36.9564C48.8761 37.0406 57.4264 46.5266 57.9099 60.1464H14.7007C15.0783 53.2213 17.523 47.4572 21.4105 43.413C25.3919 39.2711 30.9129 36.9048 37.3624 36.9564Z" fill="black" stroke="black"/>
</svg>
